<?xml version="1.0" encoding="UTF-8"?>
<svg id="_图层_1" data-name="图层 1" xmlns="http://www.w3.org/2000/svg" viewBox="0 0 439.92 394.55">
  <defs>
    <style>
      .cls-1 {
        fill: #ff976d;
      }

      .cls-2 {
        fill: #fff;
      }

      .cls-3 {
        fill: #f9fcff;
      }

      .cls-4 {
        fill: #ff6b36;
      }

      .cls-5 {
        fill: #ff6933;
      }

      .cls-6 {
        fill: #246cd3;
      }

      .cls-7 {
        fill: #feffff;
      }

      .cls-8 {
        fill: #131622;
      }

      .cls-9 {
        fill: #2c92fd;
      }

      .cls-10 {
        fill: #2d93fd;
      }

      .cls-11 {
        fill: #215ab7;
      }

      .cls-12 {
        fill: #ff7a3d;
      }

      .cls-13 {
        fill: #f7fbff;
      }

      .cls-14 {
        fill: #3194fb;
      }

      .cls-15 {
        fill: #ff924f;
      }

      .cls-16 {
        fill: #fafcff;
      }

      .cls-17 {
        fill: #fffbfa;
      }

      .cls-18 {
        fill: #f9fafc;
      }

      .cls-19 {
        fill: #255eba;
      }

      .cls-20 {
        fill: #3195fd;
      }

      .cls-21 {
        fill: #2b92fd;
      }
    </style>
  </defs>
  <path class="cls-2" d="m155.84,66.84c5.77,2.61,11.55,5.22,17.71,8-3.77-19.95-10.64-38.65-19.38-57.54-9.8,12.96-17.13,26.4-22.62,40.88-1.75.26-3.49.59-5.25.76-3.75.36-7.5.64-11.25.95-4.71-2.78-9.5-5.45-14.08-8.43-1.15-.75-1.53-2.59-2.45-3.8-.62-.81-1.56-1.38-2.36-2.06-.51.03-1.03.06-1.54.09-3.23-3.36-6.75-6.5-9.61-10.15-3.77-4.82-6.88-10.15-10.54-15.06-1.58-2.12-3.82-3.76-6.12-5.97-1.8,5.61-3.65,10.77-5.05,16.04-.55,2.06-.09,4.39-.09,7.51-.76.64-2.32,1.96-3.88,3.28.36.02.73.04,1.09.06,0,3.73.14,7.47-.04,11.2-.21,4.49-.68,8.97-1.03,13.45,0,.79,0,1.57.01,2.36-.92,11.74,1.43,23.09,3.96,34.44.7,3.16,3.01,6.38-.53,9.64-12.28,11.29-19.76,25.77-26.3,40.77-5.01,11.49-10.61,22.58-20.35,30.82-5.06,4.28-10.73,7.82-16.13,11.7,2.21.16,4.74.88,7.02.4,3.82-.8,7.44-2.49,11.21-3.57,8.69-2.5,16.99-5.85,24.65-10.73,3.56-2.27,7.23-4.37,10.84-6.55-.28.7-.52,1.41-.86,2.08-3.81,7.51-8.58,14.7-11.22,22.6-3.01,9.02-4.99,18.59-5.85,28.06-.93,10.26-1.31,20.9.37,30.99,1.87,11.23,6.15,22.1,9.75,33,1.62,4.9,3.99,9.59,6.35,14.2,1.15,2.24,3.04,4.11,4.62,6.13,4.86,6.19,9.23,12.85,14.7,18.43,8.19,8.34,16.88,16.25,25.88,23.7,7.16,5.93,14.84,11.36,22.82,16.14,5.66,3.39,12.06,5.75,18.37,7.81,12.24,4.01,24.65,7.5,36.99,11.2,3.88,1.16,7.71,2.86,11.67,3.27,5.72.59,11.54.24,17.32.29l.78,1.14c.26-.37.53-.75.79-1.12,5.04.47,10.1,1.42,15.13,1.28,4.7-.13,9.34-1.6,14.04-2.16,5.18-.62,10.51-.34,15.57-1.43,6-1.29,11.82-3.49,17.64-5.51,8.85-3.07,17.65-6.32,26.46-9.49,2.43,1.86,3.11-.08,3.9-1.79,6.53-3.71,13.5-6.51,19.84-10.75,6.12-4.09,12.35-8.03,18.1-12.62,3.65-2.92,6.93-6.3,10.54-9.63-7.96,0-15.2,0-22.44,0-2.08-.75-4.18-2.17-6.25-2.12-9.08.21-17.26-2.75-25.31-6.37.3-.3.6-.61.89-.91,1.83.09,3.65.25,5.48.24,8.84-.04,17.73.48,26.49-.33,16.13-1.5,31.15-6.98,45.35-14.69,3.03-1.65,5.95-3.56,8.72-5.62,3.04-2.27,5.93-4.76,8.74-7.31,5.65-5.12,11.54-10.03,16.69-15.62,3.66-3.97,6.27-8.9,9.35-13.4,3-4.4,6-8.8,9-13.21.46-1.05.93-2.11,1.39-3.16,7.4-15.36,12.31-31.41,14.37-49.18-1.32.79-1.84.91-1.92,1.17-1.82,5.98-3.56,11.98-5.4,17.96-.34,1.09-1.07,2.07-1.61,3.1l-.37-.57c.03.21.06.41.1.62-1.58,3.92-3.14,7.86-4.78,11.75-.15.36-.8.52-1.22.77-.06-.2-.13-.4-.19-.61-.04.23-.08.45-.12.68-1.71,2.81-3.35,5.66-5.15,8.41-1.01,1.54-2.27,2.93-3.41,4.38-.21.1-.36.26-.45.48-7.33,7.28-14.51,14.71-22.07,21.75-2.53,2.35-6,3.69-9.05,5.48,3.04-7.32,6.46-14.52,9.05-22,4.65-13.42,8.37-27.06,10.55-41.2,1.29-8.34,2.17-16.57,2.02-24.95-.13-7.28-.58-14.55-.74-21.83-.25-11.48-2.66-22.59-5.3-33.69-4.34-18.19-11.45-35.25-20.55-51.53-2.16-3.86-3.65-8.15-6.17-11.75-3.25-4.65-7.28-8.74-10.85-13.18-2.73-3.4-4.94-7.29-7.98-10.37-3.07-3.11-7.13-5.22-10.31-8.24-9.6-9.11-20.46-16.38-31.78-23.11-9.08-5.4-18.54-9.94-28.65-12.91-9.06-2.66-18.19-5.33-27.47-6.95-9.72-1.7-19.65-2.15-29.5-3.15-.08.66-.15,1.32-.23,1.99,6.15.6,12.29,1.2,18.44,1.8.5.26,1.01.52,1.51.79.75.07,1.51.15,2.26.22,1.14.53,2.26,1.11,3.42,1.59,7.36,3.06,14.88,5.8,22.08,9.21,17.33,8.22,31.28,20.79,43.22,35.52,11.51,14.2,19.66,30.32,24.6,47.96,1.3,4.63,2.04,9.42,3.04,14.14-.35.11-.7.21-1.05.32-9.57-20.55-23.44-37.26-42.61-49.65-22.41-14.49-47.37-19.88-62.21-19.39.32.24.59.54.92.68.95.4,1.89.82,2.88,1.08,17.22,4.43,31.39,14.14,44.37,25.81,9.61,8.64,15.93,19.9,23.47,30.19.08.95-.06,1.98.26,2.84,1.72,4.53,3.81,8.93,5.28,13.53,3.04,9.5,4.81,19.2,5.78,29.21,1.08,11.24.38,22.31-1.32,33.23-2.46,15.78-8.54,30.46-17.11,43.96-2.33,3.66-5.58,6.74-8.4,10.09.48-1.04.86-2.13,1.45-3.1,8.26-13.61,12.74-28.49,14.04-44.22.96-11.66-.09-23.37-2.52-34.79-3.16-14.86-9.02-28.71-17.81-41.22-.47-.67-1.16-1.19-1.74-1.78-.24,1.5.11,2.42.59,3.27,6.88,12.29,10.14,25.69,11.2,39.54.44,5.71-.23,11.7-1.56,17.29-2.07,8.76-4.18,17.74-7.99,25.81-5.56,11.78-13.85,21.74-24.01,30.26-11.2,9.39-23.61,15.92-37.5,20.31-11.75,3.71-23.5,4.32-35.57,2.81-13.34-1.67-25.48-6.38-36.47-14.03-3.98-2.77-7.71-5.88-11.55-8.84-1.94-4.64-3.88-9.27-5.83-13.91.26-1.55-.11-3.03-.35-4.54-.21-1.3-.69-2.77-.29-3.91,1.65-4.75,3.58-9.39,5.69-14.8-11.17,4.46-23.26,5.74-32.04,16.2-.39-1.98-1.09-3.29-.7-3.88,3.13-4.72,4.58-10.1,6.42-15.34,1.52-4.34.81-6.03-3.97-7.72-3.83-1.36-7.95-2.21-11.43-4.18-1.73-.98-2.67-1.21-4.32-.5-1.14.49-2.47.63-3.73.71-3.26.19-6.52.34-9.78.31-1.11,0-2.22-.6-3.33-.92.62-1.05,1-2.46,1.91-3.08,1.7-1.15,4.07-1.44,5.51-2.79,4.37-4.09,9.31-6.54,15.31-6.97,1.27-.09,2.48-.84,3.75-1.3-4.79-3.63-9.54-6.41-13.23-10.22-5.46-5.64-10.66-11.68-15.06-18.16-3.55-5.24-5.77-11.38-8.54-17.15-.38-.79-.5-1.71-.74-2.57.2-.53.4-1.06.6-1.59.01-.26.02-.52.03-.78-.26-.52-.52-1.05-.79-1.57.33-4.99-4.23-8.84-3.67-14.09.67.15,1.06.14,1.13.27,4.25,9.21,10.6,16.85,18.3,23.25,4.36,3.63,9.46,6.37,14.22,9.51.54.25,1.07.5,1.61.75,3.64,1.41,7.24,2.93,10.93,4.2,3.12,1.07,6.33,2.59,9.52,2.63,11.67.16,23.35-.22,35.03-.4l.19.18c1.4.16,2.94,0,4.17.54,5.15,2.26,10.21,4.72,15.31,7.11l.16.16c2.38,1.79,5.18,3.22,7.07,5.44,4.23,4.96,8,10.3,11.96,15.48.26.26.53.53.79.79.32,1.31.64,2.62.95,3.93.72.53,1.45,1.06,2.17,1.58,4.72,4.46,9.44,8.92,14.16,13.39.53.45,1.06.9,1.59,1.35.5.07,1.01.14,1.51.21.26.16.53.32.79.47,5.51,2.45,11.03,4.91,16.54,7.36,2.11,4.55,5.43,7.07,10.67,6.3,4.93-.73,8.77-3.17,11.15-7.55.32-.58-.29-2.32-.94-2.68-3.94-2.19-8.02-4.13-12.05-6.16-2.06-1.77-3.87-4.15-6.26-5.13-2.2-.9-3.93-1.34-4.23-4.05-.08-.71-1.2-1.41-1.98-1.91-1.69-1.08-3.89-1.66-5.14-3.09-3.65-4.19-7.29-8.46-10.29-13.12-6.91-10.71-10.19-23.03-14.79-34.78-6.34-16.19-15.82-30.28-29.81-41-1.07-1.07-2.02-2.3-3.24-3.17-4.13-2.96-8.36-5.78-12.55-8.66Zm39.33,105.86c-1.32-1.91-2.51-3.51-3.57-5.19-7.56-11.98-17.74-18.78-32.57-17.45-4.48.4-9.07-.52-13.74-.85,3.77,4.09,7.18,7.73,10.53,11.43,7.05,7.79,14.63,14.45,26.25,13.14,4.24-.48,8.51-.71,13.09-1.09ZM221.68.41c-.11.24-.22.47-.34.71.49.08.97.17,1.46.25l.11-.39c-.41-.19-.82-.38-1.23-.57Zm216.77,209.22c.31,0,.63,0,.94.01v-1.72c-.31.03-.89.02-.9.09-.08.53-.04,1.08-.04,1.62Z"/>
  <path class="cls-21" d="m424.16,261.83c-3,4.4-6,8.81-9,13.21-3.07,4.5-5.69,9.43-9.35,13.4-5.15,5.59-11.04,10.5-16.69,15.62-2.81,2.55-5.7,5.04-8.74,7.31-2.77,2.06-5.69,3.97-8.72,5.62-14.2,7.71-29.22,13.19-45.35,14.69-8.77.82-17.66.29-26.49.33-1.83,0-3.65-.16-5.48-.24-1.13-.32-2.26-.65-3.39-.97-.07.28-.14.56-.21.84.9.35,1.8.7,2.71,1.04,8.06,3.62,16.24,6.57,25.31,6.37,2.06-.05,4.16,1.38,6.25,2.12-12.11,8.91-25.74,14.95-39.93,19.32-12.1,3.73-24.44,6.81-37.3,7.66-16.06,1.06-32.1,1.33-47.95-1.24-22.33-3.62-43.24-11.56-62.84-22.92-17.54-10.17-32.85-23.03-46.35-38.1-.26-.26-.52-.53-.78-.79,0,0-.03-.03-.03-.03-.28-.51-.55-1.01-.83-1.52-1.04-1.05-2.07-2.1-3.11-3.15-.27-.53-.53-1.05-.8-1.58-.74-.72-1.66-1.33-2.18-2.18-3.79-6.13-7.6-12.24-11.2-18.48-3.3-5.72-7.1-11.32-9.35-17.45-5.15-14.09-11.75-28.02-8.82-43.79.08-.45-.23-.98-.36-1.47-.62-2.41-1.65-4.81-1.75-7.24-.14-3.35.21-6.76.73-10.08,1.03-6.52,2.33-12.99,3.5-19.49.25-1.4.38-2.81.64-4.81-1.47.87-2.03,1.2-2.58,1.53-3.62,2.18-7.28,4.28-10.84,6.55-7.66,4.88-15.95,8.23-24.65,10.73-3.77,1.08-7.39,2.77-11.21,3.57-2.28.48-4.81-.24-7.02-.4,5.39-3.87,11.07-7.42,16.13-11.7,9.74-8.24,15.34-19.33,20.35-30.82,6.54-15,14.02-29.48,26.3-40.77,3.54-3.26,1.23-6.48.53-9.64-2.52-11.35-4.87-22.7-3.96-34.44.7-.4,1.39-.79,2.09-1.19-.7-.39-1.4-.78-2.1-1.17.36-4.48.83-8.96,1.03-13.45.17-3.73.04-7.47.04-11.2-.36-.02-.73-.04-1.09-.06,1.56-1.32,3.12-2.64,3.88-3.28,0-3.12-.46-5.45.09-7.51,1.4-5.27,3.25-10.42,5.05-16.04,2.3,2.21,4.53,3.84,6.12,5.97,3.66,4.91,6.77,10.24,10.54,15.06,2.86,3.65,6.38,6.79,9.61,10.15.51-.03,1.03-.06,1.54-.09.8.68,1.74,1.25,2.36,2.06.92,1.2,1.3,3.05,2.45,3.8,4.58,2.98,9.37,5.65,14.09,8.43,6.25,3.53,12.72,6.14,19.95,7.31,7.36,1.18,14.53,3.58,21.77,5.51,1.49.4,3.51.68,4.22,1.73,2.67,3.96,7.19,2.63,10.63,4.24,13.99,10.72,23.47,24.81,29.81,41,4.6,11.75,7.88,24.06,14.79,34.78,3,4.65,6.64,8.93,10.29,13.12,1.25,1.43,3.45,2.01,5.14,3.09.78.5,1.9,1.2,1.98,1.91.31,2.71,2.03,3.15,4.23,4.05,2.39.98,4.2,3.36,6.26,5.13-3.39,2.97-8.32,4.6-8.84,10.09-5.51-2.45-11.03-4.91-16.54-7.36-.26-.16-.53-.32-.79-.47-.5-.07-1.01-.14-1.51-.21-.53-.45-1.06-.9-1.59-1.35-4.72-4.46-9.44-8.92-14.16-13.39.78-2.58-1.35-1.19-2.17-1.58-.32-1.31-.64-2.62-.95-3.93-.26-.26-.53-.53-.79-.79-3.96-5.18-7.73-10.53-11.96-15.48-1.89-2.21-4.68-3.65-7.06-5.44.13-.17.25-.33.45-.59-.26.19-.44.31-.61.44-5.1-2.39-10.16-4.86-15.31-7.11-1.23-.54-2.77-.38-4.17-.54.15-.15.3-.3.45-.46-.22.09-.43.18-.65.28-11.68.18-23.36.56-35.03.4-3.19-.04-6.4-1.56-9.52-2.63-3.69-1.27-7.29-2.79-10.93-4.2-.54-.25-1.07-.5-1.61-.75-4.76-3.14-9.86-5.89-14.22-9.51-7.7-6.4-14.05-14.05-18.3-23.25-.06-.14-.45-.12-1.13-.27-.56,5.24,4,9.1,3.67,14.09-.37.26-.75.53-1.12.79.64.26,1.27.52,1.91.78-.01.26-.02.52-.03.78-.2.53-.4,1.06-.6,1.59.24.86.35,1.78.74,2.57,2.77,5.76,4.99,11.91,8.54,17.15,4.4,6.49,9.59,12.53,15.06,18.16,3.69,3.81,8.43,6.59,13.23,10.22-1.27.46-2.48,1.21-3.75,1.3-6,.43-10.94,2.89-15.31,6.97-1.44,1.35-3.82,1.64-5.51,2.79-.91.62-1.29,2.03-1.91,3.08,1.11.32,2.22.91,3.33.92,3.26.03,6.53-.12,9.78-.31,1.26-.07,2.59-.22,3.73-.71,1.65-.71,2.59-.48,4.32.5,3.48,1.97,7.59,2.82,11.43,4.18,4.78,1.7,5.49,3.38,3.97,7.72-1.84,5.25-3.29,10.62-6.42,15.34-.39.59.31,1.9.7,3.88,8.78-10.46,20.87-11.74,32.04-16.2-2.11,5.4-4.04,10.05-5.69,14.8-.39,1.14.09,2.61.29,3.91.24,1.5.61,2.99.35,4.54,1.94,4.64,3.88,9.27,5.82,13.91,2.42,4.37,4.37,9.11,7.38,13.02,5.05,6.56,10.49,12.88,16.31,18.76,4.5,4.54,9.83,8.26,14.79,12.34.48.24.96.49,1.44.73,7.91,4.74,15.83,9.48,23.74,14.22.98.75,1.84,1.82,2.95,2.21,9.92,3.51,18.63,9.98,29.19,11.91,3.28.6,5.55,4.46,9.49,2.93,3.19,2.61,7.22,2.02,10.86,2.95,13.42,3.43,27.11,4.36,40.83,5.02,4.63.22,9.33-.18,13.94-.77,6.46-.83,12.87-2.11,19.29-3.19.51.03,1.02.06,1.52.1.79-.2,1.58-.41,2.37-.61,4.19-1.24,8.62-.91,12.75-3.2,6.77-3.76,14.25-6.24,20.97-10.08,3.48-1.98,8.27-2.1,10.33-6.39.1-.45.21-.91.31-1.36l.05-.12c3.04-1.8,6.52-3.14,9.05-5.49,7.55-7.03,14.74-14.47,22.07-21.75.15-.16.3-.32.45-.48,1.15-1.45,2.4-2.84,3.41-4.38,1.8-2.75,3.44-5.6,5.14-8.41,0,0,.32-.07.32-.07.42-.25,1.07-.41,1.22-.77,1.64-3.9,3.2-7.83,4.77-11.76,0,0,.28-.05.28-.05.55-1.03,1.28-2,1.61-3.1,1.84-5.97,3.58-11.98,5.4-17.96.08-.26.59-.38,1.92-1.17-2.06,17.78-6.97,33.82-14.37,49.18-.46,1.05-.93,2.11-1.39,3.16Z"/>
  <path class="cls-6" d="m90.64,305.88c13.5,15.07,28.81,27.92,46.35,38.1,19.6,11.37,40.51,19.3,62.84,22.92,15.85,2.57,31.89,2.29,47.95,1.24,12.85-.85,25.2-3.93,37.3-7.66,14.18-4.37,27.81-10.41,39.93-19.32,7.24,0,14.48,0,22.44,0-3.61,3.33-6.89,6.71-10.54,9.63-5.75,4.59-11.98,8.52-18.1,12.62-6.33,4.24-13.3,7.04-19.84,10.75-1.3.6-2.6,1.2-3.9,1.79-8.82,3.17-17.61,6.43-26.46,9.49-5.82,2.02-11.64,4.22-17.64,5.51-5.06,1.08-10.39.81-15.57,1.43-4.7.56-9.35,2.02-14.04,2.16-5.03.14-10.09-.81-15.13-1.28-.52,0-1.05-.01-1.57-.02-5.78-.05-11.6.3-17.32-.29-3.96-.41-7.79-2.11-11.67-3.27-12.34-3.69-24.75-7.18-36.99-11.2-6.31-2.07-12.71-4.42-18.37-7.81-7.98-4.78-15.65-10.21-22.82-16.14-9-7.45-17.69-15.36-25.88-23.7-5.48-5.58-9.85-12.24-14.7-18.43-1.58-2.02-3.47-3.89-4.62-6.13-2.36-4.62-4.73-9.3-6.35-14.2-3.61-10.9-7.88-21.76-9.75-33-1.68-10.09-1.3-20.73-.37-30.99.86-9.47,2.84-19.04,5.85-28.06,2.64-7.9,7.4-15.09,11.22-22.6.34-.67.57-1.39.86-2.08.56-.33,1.11-.66,2.58-1.53-.26,2-.39,3.41-.64,4.81-1.16,6.5-2.47,12.97-3.5,19.49-.52,3.32-.87,6.73-.73,10.08.1,2.43,1.13,4.83,1.75,7.24.13.49.44,1.02.36,1.47-2.93,15.77,3.67,29.71,8.82,43.79,2.25,6.14,6.04,11.73,9.35,17.45,3.6,6.24,7.41,12.35,11.2,18.48.53.85,1.45,1.46,2.18,2.18.27.53.53,1.05.8,1.58,1.04,1.05,2.07,2.1,3.11,3.15.28.51.55,1.01.83,1.52,0,0,.03.03.03.03.26.26.52.53.78.79Z"/>
  <path class="cls-5" d="m383.91,286.34c-2.07,4.29-6.86,4.4-10.33,6.39-6.72,3.84-14.2,6.32-20.97,10.08-4.13,2.29-8.56,1.96-12.75,3.2-.79.2-1.58.41-2.37.61-.51-.03-1.02-.06-1.52-.1,4.58-7.33,9.65-14.41,13.61-22.07,5.13-9.9,9.97-20.05,13.81-30.5,3.57-9.72,6.11-19.89,8.26-30.04,2.04-9.61,3.57-19.42,4.23-29.21.71-10.55.19-21.18.13-31.78,0-1.36-.47-2.72-.73-4.08-1.57-9.45-2.77-18.99-4.8-28.34-3.55-16.39-9.46-32-18.12-46.39-4.82-8.01-10.66-15.4-15.64-23.32-4.71-7.49-11.5-12.95-17.67-18.99-4.61-4.52-9.69-8.6-14.8-12.57-4.86-3.78-9.75-7.66-15.12-10.6-6.29-3.44-13.05-6.08-19.73-8.77-6.67-2.68-13.49-4.96-20.82-5.06-.75-.07-1.51-.15-2.26-.22-.5-.26-1.01-.52-1.51-.79-6.15-.6-12.29-1.2-18.44-1.8.08-.66.15-1.32.23-1.99,9.84,1,19.78,1.45,29.5,3.15,9.28,1.62,18.41,4.29,27.47,6.95,10.12,2.96,19.57,7.51,28.65,12.91,11.32,6.73,22.19,14,31.78,23.11,3.18,3.02,7.24,5.13,10.31,8.24,3.04,3.08,5.24,6.97,7.98,10.37,3.57,4.44,7.6,8.53,10.85,13.18,2.51,3.59,4.01,7.88,6.17,11.75,9.1,16.29,16.21,33.34,20.55,51.53,2.65,11.1,5.05,22.21,5.3,33.69.16,7.28.61,14.55.74,21.83.15,8.38-.73,16.61-2.02,24.95-2.19,14.14-5.9,27.78-10.55,41.2-2.59,7.48-6.01,14.68-9.05,22.01,0,0-.05.12-.05.13-.1.45-.21.91-.31,1.36Z"/>
  <path class="cls-11" d="m209.41,285.48c-7.91-4.74-15.83-9.48-23.74-14.22-.48-.24-.96-.49-1.44-.73-4.96-4.08-10.29-7.8-14.79-12.34-5.82-5.88-11.26-12.2-16.31-18.76-3.01-3.92-4.96-8.65-7.38-13.02,3.84,2.96,7.58,6.08,11.55,8.84,10.99,7.65,23.13,12.36,36.47,14.03,12.07,1.51,23.81.9,35.57-2.81,13.89-4.39,26.3-10.91,37.5-20.31,10.16-8.52,18.45-18.48,24.01-30.26,3.81-8.07,5.92-17.05,7.99-25.81,1.32-5.59,2-11.59,1.56-17.29-1.06-13.86-4.32-27.25-11.2-39.54-.48-.85-.83-1.78-.59-3.27.59.59,1.27,1.11,1.74,1.78,8.79,12.5,14.65,26.35,17.81,41.22,2.43,11.42,3.48,23.13,2.52,34.79-1.29,15.74-5.78,30.62-14.04,44.22-.59.97-.97,2.06-1.45,3.1-.54,1.15-.83,2.55-1.67,3.41-5.15,5.32-10.16,10.83-15.72,15.69-11.99,10.47-25.72,18.21-40.71,23.43-9.04,3.15-18.45,5.27-27.69,7.85Z"/>
  <path class="cls-15" d="m248.59,4.79c7.32.1,14.15,2.37,20.82,5.06,6.68,2.69,13.44,5.33,19.73,8.77,5.37,2.94,10.27,6.82,15.12,10.6,5.11,3.97,10.18,8.05,14.8,12.57,6.17,6.04,12.96,11.5,17.67,18.99,4.98,7.92,10.82,15.31,15.64,23.32,8.66,14.39,14.57,30,18.12,46.39,2.03,9.36,3.23,18.89,4.8,28.34-.66-1.02-1.23-2.84-1.99-2.92-3.68-.39-7.53-.97-11.08-.24-4.88.99-9.43,3.63-14.31,4.57-4.91.95-10.06.68-15.11.94-.52.27-1.04.54-1.56.81h.02c-.26-.01-.52-.01-.77,0-.27-2.56-.48-5.13-.81-7.68-1.57-12.01-4.63-23.65-9.51-34.7-2.65-6.01-6.26-11.6-9.44-17.38-7.54-10.28-13.86-21.55-23.47-30.19-12.98-11.66-27.15-21.38-44.37-25.81-.99-.25-1.94-.68-2.88-1.08-.33-.14-.6-.43-.92-.68,14.84-.49,39.8,4.9,62.21,19.39,19.17,12.39,33.04,29.1,42.61,49.65.35-.11.7-.21,1.05-.32-1-4.72-1.75-9.5-3.04-14.14-4.94-17.64-13.1-33.76-24.6-47.96-11.93-14.73-25.89-27.3-43.22-35.52-7.2-3.41-14.71-6.15-22.08-9.21-1.16-.48-2.28-1.06-3.42-1.59Z"/>
  <path class="cls-5" d="m310.71,102.23c3.18,5.78,6.79,11.37,9.44,17.38,4.88,11.05,7.95,22.7,9.51,34.7.33,2.55.54,5.12.81,7.68,0,6.26,0,12.52,0,18.78.48,13.39-3.77,25.89-8.35,38.05-4.76,12.61-11.06,24.57-19.25,35.56-7.28,9.76-15.54,18.52-24.48,26.58-6.43,5.79-14.09,10.18-20.96,15.5-2.28,1.77-5.99,2.24-6.39,6.05-3.94,1.54-6.21-2.33-9.49-2.93-10.56-1.93-19.27-8.4-29.19-11.91-1.11-.39-1.97-1.46-2.95-2.21,9.24-2.58,18.64-4.7,27.69-7.85,14.99-5.22,28.72-12.96,40.71-23.43,5.56-4.86,10.57-10.37,15.72-15.69.84-.87,1.13-2.26,1.67-3.41,2.83-3.35,6.08-6.42,8.4-10.09,8.58-13.5,14.65-28.18,17.11-43.96,1.7-10.92,2.41-21.99,1.32-33.23-.96-10.02-2.73-19.71-5.78-29.21-1.47-4.6-3.57-9-5.28-13.53-.32-.86-.19-1.89-.26-2.84Z"/>
  <path class="cls-10" d="m131.55,58.18c5.49-14.48,12.82-27.92,22.62-40.88,8.73,18.89,15.61,37.59,19.38,57.54-6.16-2.78-11.93-5.39-17.71-8-2.6-1.08-5.16-2.29-7.82-3.22-5.46-1.9-10.98-3.64-16.47-5.45Z"/>
  <path class="cls-9" d="m195.16,172.7c-4.58.37-8.85.61-13.09,1.09-11.63,1.31-19.2-5.35-26.25-13.14-3.35-3.7-6.76-7.35-10.53-11.43,4.66.33,9.26,1.25,13.74.85,14.82-1.33,25.01,5.46,32.57,17.45,1.06,1.68,2.25,3.27,3.57,5.19Z"/>
  <path class="cls-19" d="m131.55,58.18c5.49,1.81,11.01,3.55,16.47,5.45,2.66.92,5.22,2.13,7.82,3.22,4.19,2.88,8.42,5.7,12.55,8.66,1.21.87,2.17,2.11,3.24,3.17-3.44-1.6-7.96-.28-10.63-4.23-.71-1.05-2.74-1.33-4.22-1.73-7.24-1.93-14.4-4.33-21.77-5.51-7.24-1.16-13.7-3.78-19.95-7.31,3.75-.31,7.5-.59,11.25-.95,1.76-.17,3.5-.5,5.25-.76Z"/>
  <path class="cls-8" d="m235.29,191.84c.51-5.49,5.44-7.12,8.84-10.09,4.03,2.03,8.11,3.97,12.05,6.16.65.36,1.26,2.09.94,2.68-2.38,4.39-6.22,6.83-11.15,7.55-5.24.77-8.56-1.75-10.67-6.3Z"/>
  <path class="cls-7" d="m295.07,375.95c1.3-.6,2.6-1.2,3.9-1.79-.79,1.71-1.46,3.66-3.9,1.79Z"/>
  <path class="cls-13" d="m424.16,261.83c.46-1.05.93-2.11,1.39-3.16-.46,1.05-.93,2.11-1.39,3.16Z"/>
  <path class="cls-21" d="m59.35,66.06c.7.39,1.4.78,2.1,1.17-.7.4-1.39.79-2.09,1.19,0-.79,0-1.57-.01-2.36Z"/>
  <path class="cls-21" d="m198.53,167.48c.82.39,2.95-1,2.17,1.58-.72-.53-1.45-1.06-2.17-1.58Z"/>
  <path class="cls-3" d="m293.45,332.67c-.9-.35-1.8-.7-2.71-1.04.07-.28.14-.56.21-.84,1.13.32,2.26.65,3.39.97-.3.3-.6.61-.89.91Z"/>
  <path class="cls-21" d="m71.65,109.3c-.64-.26-1.27-.52-1.91-.78.37-.26.75-.53,1.12-.79.26.52.52,1.05.79,1.57Z"/>
  <path class="cls-21" d="m214.86,182.45c.53.45,1.06.9,1.59,1.35-.53-.45-1.06-.9-1.59-1.35Z"/>
  <path class="cls-4" d="m244.81,3.78c.5.26,1.01.52,1.51.79-.5-.26-1.01-.52-1.51-.79Z"/>
  <path class="cls-7" d="m204.65,393.24c.52,0,1.05.01,1.57.02-.26.37-.53.75-.79,1.12l-.78-1.14Z"/>
  <path class="cls-20" d="m96.16,45.61c-.51.03-1.03.06-1.54.09.51-.03,1.03-.06,1.54-.09Z"/>
  <path class="cls-17" d="m221.68.41c.41.19.82.38,1.23.57l-.11.39c-.49-.08-.97-.17-1.46-.25.11-.24.22-.47.34-.71Z"/>
  <path class="cls-21" d="m100.83,126.68c.54.25,1.07.5,1.61.75-.54-.25-1.07-.5-1.61-.75Z"/>
  <path class="cls-20" d="m71.02,111.67c.2-.53.4-1.06.6-1.59-.2.53-.4,1.06-.6,1.59Z"/>
  <path class="cls-21" d="m438.45,209.63c0-.54-.04-1.09.04-1.62.01-.07.59-.06.9-.09v1.72c-.31,0-.63,0-.94-.01Z"/>
  <path class="cls-13" d="m415.83,257.14c-.15.16-.3.32-.45.48.09-.22.24-.38.45-.48Z"/>
  <path class="cls-21" d="m196.78,162.76c.26.26.53.53.79.79-.26-.26-.53-.53-.79-.79Z"/>
  <path class="cls-16" d="m424.71,244.28s-.33.06-.32.07c.05-.22.09-.45.13-.67.06.2.13.4.19.61Z"/>
  <path class="cls-16" d="m430.99,231.71s-.29.05-.28.05c-.02-.2-.06-.41-.09-.62l.37.57Z"/>
  <path class="cls-21" d="m217.95,184.01c.26.16.53.32.79.47-.26-.16-.53-.32-.79-.47Z"/>
  <path class="cls-12" d="m251.04,302.52c.4-3.81,4.11-4.29,6.39-6.05,6.87-5.32,14.54-9.72,20.96-15.5,8.94-8.05,17.2-16.82,24.48-26.58,8.19-10.99,14.49-22.95,19.25-35.56,4.58-12.15,8.83-24.66,8.35-38.05.25-1.21.7-2.42.72-3.64.09-5.05.05-10.1.06-15.15,0,0-.02,0-.02,0,.52-.27,1.04-.54,1.56-.81,5.05-.26,10.19,0,15.11-.94,4.88-.94,9.43-3.58,14.31-4.57,3.54-.72,7.4-.15,11.08.24.76.08,1.33,1.9,1.99,2.92.25,1.36.72,2.72.73,4.08.06,10.6.59,21.23-.13,31.78-.66,9.8-2.2,19.6-4.23,29.21-2.15,10.15-4.7,20.32-8.26,30.04-3.84,10.45-8.68,20.59-13.81,30.5-3.96,7.65-9.03,14.73-13.61,22.07-6.43,1.09-12.83,2.36-19.29,3.19-4.61.59-9.31,1-13.94.77-13.72-.66-27.41-1.59-40.83-5.02-3.64-.93-7.67-.34-10.86-2.95Z"/>
  <path class="cls-14" d="m337.49,306.62c.79-.2,1.58-.41,2.37-.61-.79.2-1.58.41-2.37.61Z"/>
  <path class="cls-14" d="m85.9,300.39c-.27-.53-.53-1.05-.8-1.58.27.53.53,1.05.8,1.58Z"/>
  <path class="cls-10" d="m184.23,270.53c.48.24.96.49,1.44.73-.48-.24-.96-.49-1.44-.73Z"/>
  <path class="cls-18" d="m383.91,286.34c.1-.45.21-.9.31-1.36-.1.45-.21.91-.31,1.36Z"/>
  <path class="cls-14" d="m89.84,305.06c-.28-.51-.55-1.01-.83-1.52.28.51.55,1.01.83,1.52Z"/>
  <path class="cls-14" d="m90.64,305.88c-.26-.26-.52-.53-.78-.79.26.26.52.53.78.79Z"/>
  <path class="cls-21" d="m157.93,133.86c.22-.09.43-.18.65-.28-.15.15-.3.3-.45.46,0,0-.19-.18-.19-.18Z"/>
  <path class="cls-21" d="m177.6,141.68c.17-.12.34-.25.61-.44-.19.26-.32.42-.45.59,0,0-.16-.16-.16-.16Z"/>
  <path class="cls-1" d="m331.25,161.99c-.01,5.05.03,10.1-.06,15.15-.02,1.22-.47,2.43-.72,3.64,0-6.26,0-12.52,0-18.79.26-.01.52-.01.77,0Z"/>
  <path class="cls-1" d="m332.8,161.19c-.52.27-1.04.54-1.56.81.52-.27,1.04-.54,1.56-.81Z"/>
</svg>